<?xml version="1.0" encoding="utf-8"?>
<!-- Generator: Adobe Illustrator 23.0.2, SVG Export Plug-In . SVG Version: 6.00 Build 0)  -->
<svg version="1.1" xmlns="http://www.w3.org/2000/svg" xmlns:xlink="http://www.w3.org/1999/xlink" x="0px" y="0px"
	 viewBox="0 0 1516 1312" style="enable-background:new 0 0 1516 1312;" xml:space="preserve">
<style type="text/css">
	.st0{fill-rule:evenodd;clip-rule:evenodd;fill:#FFF9FA;}
	.st1{fill-rule:evenodd;clip-rule:evenodd;fill:#D3C8A3;}
	.st2{fill-rule:evenodd;clip-rule:evenodd;fill:#999999;}
	.st3{fill-rule:evenodd;clip-rule:evenodd;fill:#ECECEC;}
	.st4{fill-rule:evenodd;clip-rule:evenodd;fill:#784421;}
	.st5{opacity:0.2;fill-rule:evenodd;clip-rule:evenodd;enable-background:new    ;}
	.st6{opacity:0.2;fill-rule:evenodd;clip-rule:evenodd;fill:#FFFFFF;enable-background:new    ;}
	.st7{fill:#CECECE;}
	.st8{fill:#A4A4A4;}
	.st9{fill:#878787;}
	.st10{fill:#636363;}
</style>
<g id="svg2" xmlns:cc="http://creativecommons.org/ns#" xmlns:dc="http://purl.org/dc/elements/1.1/" xmlns:inkscape="http://www.inkscape.org/namespaces/inkscape" xmlns:rdf="http://www.w3.org/1999/02/22-rdf-syntax-ns#" xmlns:sodipodi="http://sodipodi.sourceforge.net/DTD/sodipodi-0.dtd" xmlns:svg="http://www.w3.org/2000/svg">
	
		<sodipodi:namedview  bordercolor="#666666" borderopacity="1.0" fit-margin-bottom="0" fit-margin-left="0" fit-margin-right="0" fit-margin-top="0" id="base" inkscape:current-layer="layer1" inkscape:cx="383.6" inkscape:cy="617.3" inkscape:document-units="px" inkscape:pageopacity="0.0" inkscape:pageshadow="2" inkscape:zoom="0.5" pagecolor="#ffffff" showgrid="false">
		</sodipodi:namedview>
	<g id="layer1" transform="translate(-2344,520.6)" inkscape:groupmode="layer" inkscape:label="Layer 1">
		<path class="st0" d="M3859.7,296.6c-2.2-41.7-1.4-83.5-1.2-125.2c-1.6-15.7-1-31.7,1.5-47v-20.1c-1.6-36.4-2.8-72.8-2.9-109.3
			c0-2.3,1.2-3.7,2.9-4.4v-511.3H2344v1312h1516V586.9c-0.3-24.7-1.7-49.5,0-74.2v-20.9c-1.5-34.6-0.9-69.3,0-104v-53.6
			C3857.5,322,3856.4,308.8,3859.7,296.6z"/>
		<path class="st1" d="M3860,710.6c0-38,0.9-76,1.3-114c-0.8-0.8-1.3-1.9-1.3-3.3c-0.1-29.5-2.3-59,0.6-88.4
			c-2.5-41.6-1.5-83.3-0.5-125c-0.1-15.1-0.1-30.2-0.1-45.4c-2.6-12.3-3.6-25.7-0.3-38c-2.2-41.6-1.4-83.5-1.2-125.2
			c-1.6-16.5-0.9-33.5,1.9-49.4H2340v672.1h475.9c2-0.3,4-0.5,6-0.5c19,0,37.7-0.3,56.4,0.5h876.1c1.8-0.3,3.6-0.4,5.5-0.4
			c2,0,3.9,0.1,5.8,0.4h95.9c-0.7-27.1-0.9-54.1-1-81.2C3860.2,712.3,3860,711.5,3860,710.6z"/>
		<path class="st2" d="M3860.7,120.2c-1.1-23.9-2.1-47.7-2.8-71.6H2340v100.1h1517.7C3858,139,3859,129.4,3860.7,120.2z"/>
		<path class="st3" d="M3860.7,120.2c-1.9-40.3-3.4-80.6-3.6-120.9H2340v126h1519.9C3860.1,123.6,3860.4,121.9,3860.7,120.2z"/>
		<path class="st4" d="M3857.7,148.7H2340v10.7h1517.8C3857.7,155.8,3857.6,152.3,3857.7,148.7z"/>
		<g id="g3055" transform="matrix(1.319,0,0,1.276,1170,5.061)">
			<path id="path3057" inkscape:connector-curvature="0" sodipodi:nodetypes="ccccccc" class="st5" d="M950.3,306.3l31.7-4.8
				l577.5-2.5l12.1-141.2l50.5-5.2v153.9L950.3,306.3z"/>
			<path id="path3059" inkscape:connector-curvature="0" sodipodi:nodetypes="ccccccc" class="st6" d="M951.7,306.3l8.9-152.1
				l661.5-1.2l-48.5,5.2L982,158.8l1.4,142.5L951.7,306.3z"/>
		</g>
		<g id="g3067" transform="matrix(1.319,0,0,1.276,2154,0.0982)">
			<path class="st5" d="M1207,623c1,0,2,0,3,0c2.4-0.7,4.9-1.1,7.5-1.1c2.4,0,4.6,0.3,6.8,0.8c3.5-0.1,7-0.2,10.5-0.2v-470l-25,17.2
				l-5.9,453.5C1204.9,623.1,1206,623,1207,623z"/>
			<path class="st5" d="M1143.8,634.1l-12.3,0.4c3.7,0.1,7.4,0.3,11.2,0.5C1143.1,634.7,1143.4,634.4,1143.8,634.1z"/>
			<path class="st6" d="M907.5,157.8l-4.1,465.5c5.1-0.1,10.3-0.2,15.4-0.3l-0.7-450.2l292.7-1.6l24-17.2L907.5,157.8z"/>
		</g>
		<g id="g3009" transform="matrix(0.3263,0,0,0.3263,1926,-241.6)">
			<path id="path3107" inkscape:connector-curvature="0" class="st7" d="M1387,1040c-11-2-17-4-19-6s-1-7,1-9c1-1,26-13,54-25.9
				c28-14,95-45,149-70c53-26,113-54,132-63s50-23,69-32c85-39,108-50,112-51c2-1,6-2,9-4c11-5,34-11,57-14c5-1,11-2,13-2
				c2-1,10-1,16-2c18-2,1871-1,1878,1c3,0,12,2,19,3c16,2,35,6,45,9c7,3,38,18,46,22c3,2,5,3,6,3s69,32,85,41c4,1,7,3,8,3
				s42,18,86,39c11,5,26,12,34,16c13,6,190,90,241,112.9c13,7,26,13,27,14c2,2,3,7,1,9c-2,3-8,4-20,6c-10,1-234,1-1525,1
				C1769,1041,1394,1040,1387,1040z M2498,756.1c-4-3-6-6-6-10c0-3,1-4,3-4l2-1l-1-26c0-15,0-32,0-39v-12h3c20,1,34,2,67,1
				c76-3,145-7.9,196-15.1c10-1.4,19-2.9,19-3.3c1-0.4,0-5.2,0-10.7c-2-17.7-2-16.3,6-21.7c16-9.8,35-18.4,53-23.4
				c5-1.3,10-2.7,10-3.1c1-0.5,1-24.5,2-53.4c1-53.1,0-133.1-2-197.1c-1-15.9-1-83.4-2-150.2c-1-138-2-159-6-215c-3-44-9-82-16-106
				c-7-26-15-40-26-45c-7-4-24-5-36-2c-47,9-81,58-86,123c-1,13,1,49,6,122c0,12,2,37,3,56s3,44,4,56c0,11,1,21,1,22c0,0,2,1,4,2
				c3,2,6,4,7,6c3,2,3,3,2,9c0,3,1,18.8,2,35.4l3,29.5l-4,4c-3,2.2-10,7-17,10.7c-28,14.9-56,20.8-93,19.5c-45-1.6-76-12-83-27.9
				c-3-5.1-3-6.2-4-36.3c-1-26.4-2-31.9-3-35.9c-1-2-2-5-2-6c0-3,5-9,10-12c2-1,4-2,4-3c0,0-1-4-1-8c-11-58-17-133-16-210
				c1-40,2-57,5-76c7-59,28-104,61-135c21-20,43-33,71-42c27-9,43-11,81-12c54-2,89,4,120,20c15,8,26,16,38,29c28,29,44,70,49,126
				c1,15,3,196,3,345.5c0,59.7,0,164.6,1,233.1v124.5l11,1.7c17,2.7,26,5.2,37,10.7l10,5.1l6-1.1c34-5.8,88-12,137-15.6
				c27-2.1,83-3.1,98-1.7c23,2.2,38,6.9,42,13.2c0,1.8,1,4,1,5c-1,1,0,26,1,55.6c0,30,1,58,1,61v7l4,1c10,2,22,6,26,9c7,3,8,7,1,7
				c-2,0-5,1-7,2c-5,2-10,4-24,5c-9,1-608,5-734,5C2504,758.1,2501,758.1,2498,756.1z"/>
			<path id="path3105" inkscape:connector-curvature="0" class="st8" d="M1389,1040c-18-3-25-7-21-13c2-2,4-3,83-40.9
				c39-18,87-40,106-49c131-62,175-83,184-87c6-3,18-7,26-11c23-11,62-29,77-36c7-3,18-8,24-11s11-5,12-5c0,0-2,2-4,3
				c-6,2-35,16-36,17s3,2,7,2c3,0,10,1,17,2l12,1l6-3c4-2,15-6,24-11c9-4,17-8,17-9s-5-2-18-3c-5-1-11-1-12-2c-11-2,25-13,55-17
				c5-1,13-2,19-3c9-1,74-1,947-1c886,0,938,0,948,1c5,1,15,3,23,4c20,3,35,7,48,13c18,8,28,13,28,14c1,1-4,2-16,3c-10,0-31,2-39,4
				c-2,0-3,0-3,1c0,0,4,2,8,4l8,4l12-3c12-3,17-4,30-6c12-2,11-2,50,16c20,10,37,18,38,18c1,1-2,2-12,3c-18,2-40,5-40,7
				c0,0,5,3,10,5l11,5l7-2c12-5,18-7,29-9c10-2,13-2,21,2c2,1,13,6,25,12c12,5,31,14,42,19c11,6,22,11,23,11c6,3,1,3-30,3
				c-29,0-37,1-35,2c0,1,8,4,18,9c16,7,18,8,23,8c3,0,6,0,7,0c3-1,25-3,35-3c5,0,11-1,13-1c5-1,4-2,69,29c19,9,64,30,100,47
				c86,39.9,89,41.9,91,43.9c4,6-3,10-22,13c-9,1-223,1-1523,1C1723,1041,1397,1041,1389,1040z M1702,1028c8-13,11-19,15-23
				c2-3,4-5.9,4-5.9c0-1-16-1-35-1h-35l-5,2.9c-7,6-22,25-22,28c0,1,12,1,38,1h38L1702,1028z M2258,1022c2-5,4-12,5-15
				c1-4,2-7,1-7.9c0,0-78,0-114,0h-10l-5,6.9c-2,4-5,7-5,7c0,1-1,4-4,7c-6,11-13,10,63,10h67L2258,1022z M2334,1027c2-5,6-27,5-27
				c0-0.9-47-0.9-48-0.9c-2,0.9-6,12.9-9,26.9c-1,2-1,3,0,3c0,1,12,1,26,1h26V1027z M3047,1028c0-5-8-17-13-23l-5-5.9h-16h-15v3.9
				c2,10,5,25,5,26c1,1,7,1,23,1C3047,1030,3047,1029,3047,1028z M3765,1029c0-3-19-25-25-28c-3-1.9-8-1.9-52-1.9c-26,0-49,0-49,0.9
				c0,0,1,1,3,2c6,5,11,10,16,18c3,4,6,8,7,9S3765,1031,3765,1029z M3880,1029c0-2-10-12-18-18c-18-12.9-14-11.9-52-11.9
				c-18,0-32,0-33,0c0,0,3,2.9,7,5.9s12,10,18,15l10,10h34C3865,1030,3880,1030,3880,1029z M4240,1029c1,0,0-2-2-3s-7-5-11-8
				c-10-8-13-11-22-16l-7-3.9h-53c-33,0-54,0-54,1c0,0,5,2.9,10,5.9c6,3,14,7,19,10c5,2,10,5,12,6c1,1,4,3,7,4c2,2,5,3,6,4
				C4148,1030,4240,1030,4240,1029z M4416,1027c16-3,17-5,8-11c-7-4-42-21.9-53-25.9c-23-10-50-17-91-25c-9-2-33-4-34-4
				c-1,1,2,3,7,5c34,16,40,19,41,21s4,3,17,8c17,4.9,29,9.9,43,15.9c9,4,28,13,32,16C4391,1030,4403,1030,4416,1027z M1416,1022
				c20-10,61-24.9,83-27.9c4-1,4-1,4-3c-1-5,0-6,10-11c12-6,14-7,9-7c-7,0-38,5-46,7c-7,2-76,34.9-79,37.9c-2,2-2,2-1,4
				c2,2,7,4,10,4C1408,1026,1412,1024,1416,1022z M1644,919.1c6-3,11-6,11-6c0-1-13-1-29-1c-9,0-9,0-21,6c-6,3-12,6-12,6
				c0,1,8,1,20,1l20-1L1644,919.1z M1791,850.1c9-4,12-5,10-6s-15-3-23-4c-6,0-7,0-16,3c-13,6-18,8-18,10c-1,0,2,1,7,1
				c4,1,12,1,16,2c4,0,9,1,10,0C1779,856.1,1785,853.1,1791,850.1z M2499,755.1c-6-3-8-11-3-13c2-1,2-1,2-10c0-6,0-23-1-38
				c-1-17-1-28,0-29c0,0,3,0,6,0c27,6,201-4,262-13.6c3-0.5,8-1.2,11-1.6c3-0.3,5-1.2,6-1.9c1-0.9,1-4.6,0-12.6
				c-1-15.7-1-15.8,1-16.8c1-0.5,5-2.6,8-4.6c12-8.2,39-19.1,54-22.6c4-0.7,6-1.9,7-2.8c2-4.3,3-138.2,1-203.6
				c-2-67.9-3-134.9-3-222.9c-1-48-1-95-2-103c0-23-2-57-3-70c-1-7-1-18-2-26c-3-43-11-88-19-111c-5-15-14-29-22-32c-7-4-16-5-27-4
				c-16,1-26,4-40,13c-9,5-16,11-24,21c-9,11-14,19-20,32c-10,22-15,47-15,73c0,15,2,56,4,83c1,8,2,25,3,38c0,14,2,35,2,48
				c1,12,2,31,3,41s1,21,2,26l1,8l5,3c8,4,10,6,8,12c-1,3-1,7,0,15.7c1,6.2,2,20,3,30.7l1,19.5l-4,3.1c-7,6-29,17.4-41,21.4
				c-20,6.4-28,7.5-58,7.5c-28,0-37-1-56-5.7c-11-2.5-24-8.5-29-13.3c-8-7.2-8-7.6-9-43.5c-2-29.4-2-32.4-4-35.4c-4-7-2-11,7-16
				c4-2,5-4,5-5s-1-9-2-18c-4-21-4-20-6-38c-2-16-4-38-6-65c-2-22-2-132,0-151c5-59,18-97,44-134c6-9,23-26,34-34c26-20,56-33,94-39
				c7-1,15-2,18-3c4-1,58-1,65,0c1,0,7,1,14,2c43,6,74,19,100,45c24,24,39,55,46,97c3,15,4,24,5,47c1,28,3,392.6,3,597.2v89.2l2,0.9
				c1,0.5,9,2,17,3.5c15,2.7,28,7.1,35,11.9c5,3,5,3.1,12,1.8c7-1.5,18-3.2,26-4.1c4-0.5,16-2,27-3.4c81-10.5,171-13.9,201-7.5
				c8,1.8,17,5,19,7.4c3,2.1,3,3.3,3,7.2c0,11.4,3,121.9,4,122.9c0,1,5,2,10,3c15,5,24,9,24,12c0,1-1,1-4,1c-2,0-5,1-6,2
				c-4,2-10,4-24,5c-6,1-145,2-353,3C2502,757.1,2502,757.1,2499,755.1z M2865,577.7c1-3,3-26.3,3-38.7c3-49.9,3-66.3,3-120
				c-1-31.9-1-61.2-1-65c-1-3.9-1-27.5-1-52.5c-1-25-1-51.6-2-59c-1-46.4-1-67.4-1-107.4c-1-24-1-53-2-65c0-11,0-38,0-60
				c-1-22-1-58-2-80c0-36,0-39-2-43c-3-6-9-14-10-13c0,1,0,5,1,10c3,25,6,84,8,176c2,88,2,100,3,310.4c0,114.7,0,209.1,1,209.8
				C2863,582.3,2865,580.8,2865,577.7z M2538,289.2c3-4.6,5-14,5-22.7c0-6.9,0-10-3-15.8c-3-8.3-9-17.1-14-21.3c-6-5.1-6-4.2-4,11.8
				c1,5.4,3,15.2,4,21.8c1,10.8,5,24,7,27.2C2535,292.1,2537,291.8,2538,289.2z M2536-15.9c8-8,10-41,4-55c-4-9-14,0-18,15
				c-5,20,0,42,10,42C2533-13.9,2535-14.9,2536-15.9z M2546-98.9c2-3,4-6,5-12c10-32,17-51,29-72c18-36,41-63,64-76c11-6,10-7-3-4
				c-27,7-54,21-70,37c-16,17-27,35-34,61c-8,29-9,57-1,66C2539-95.9,2542-95.9,2546-98.9z"/>
			<path id="path3103" inkscape:connector-curvature="0" class="st9" d="M1395,1040c-9-1-23-4-26-7c-2-1-3-4,0-6c1-1,13-7,26-13
				c13-7,41-19.9,61-28.9c86-41,134-63,135-63c2,0-3,4-8,6c-3,2-27,13-55,26c-27,13-51,24-53,25c-3,1-12,5-21,9s-18,9-21,10
				c-19,8.9-37,17.9-38,19.9c-3,5,2,8,23,10c16,2,37,2,1502,2h1486l10-2c19-4,21-8,6-16c-7-3-9-5-3-2c2,1,7,3,11,4c11,5,25,12,26,14
				c3,4-2,7-17,11c-7,1-66,1-1522,2C2084,1041,1399,1040,1395,1040z M1965,998.1c0,0-57-1-126-1c-163,0-172,0-249,0c-60,0-65,0-73-1
				c-10-3-12-3-13-6c-2-3,1-5,12-10c5-2,10-5,12-6c3-2,5-3,5-3c1,0,7-2,38-17c10-5,19-9,19-9s5-2,11-5c5-3,12-6,15-7s7-3,10-5
				c3-1,6-2,6-2c2,0,22-10,32-15c3-2,8-5,11-6s12-5,20-9s15-7,15-7s5-2,11-5c5-3,13-6,17-8c13-6,26-12,30-14c3-2,7-3,8-4
				c4,0,22-9,35-15c7-3,31-15,32-15c0,0,6-2,12-5s14-7,17-8c7-2,17-7,33-15c6-2,13-5,15-6c3-2,5-3,6-4c1-2,17-7,28-10c4,0,10-2,12-2
				c3-1,7-1,9-1c2-1,5-1,7-2c10-4-11-4,924-4l892,1l16,2c9,2,19,3,22,4c10,2,19,4,28,8c4,2,9,4,9,4c1,0,2,1,4,2c1,1,6,3,11,5
				c4,2,8,4,10,5c1,2,20,11,22,11c1,0,4,1,7,3c4,1,10,4,15,7c5,2,14,6,22,9c7,4,16,8,20,10c4,1,8,3,10,4c1,2,24,12,26,12
				c0,0,6,3,13,6c12,6,15,7,42,19c9,5,19,9,21,11c4,2,32,16,40,19c4,1,8,2,9,3c3,2,23,11,29,13c3,2,11,5,17,8s11,6,11,6
				c2,0,34,16,44,21c2,1,11,5,19,9c22,11,27,13,28,16c1,6-23,10-67,9c-29-1-44-1-297,0c-86,0-164,0-175,0s-42,0-68,0
				c-27,0-186,0-354,0s-312,0-320,0c-9,0-164,0-345,0s-340,0-353,0s-30,0-37,0c-45,0-149,0-224,0C2005,998.1,1965,998.1,1965,998.1z
				 M4358,982.1c-1-1-1-1,0-1c0,0,1,0,2,1s1,1,1,1C4360,983.1,4359,983.1,4358,982.1z M4350,978.1c-1-1-1-1,1,0c3,2,4,2,2,2
				C4353,980.1,4352,979.1,4350,978.1z M4342,975.1c-3-1-2-2,1-1c2,1,3,1,3,2C4346,976.1,4345,976.1,4342,975.1z M1598,919.1
				c0-1,1-1,2-1c1-1,1-1,1,0C1600,919.1,1598,919.1,1598,919.1z M1613,912.1c0-1,50-24,117-56c3-1,6-2,7-2c0,0-7,4-17,9
				s-23,11-29,14c-7,4-14,7-18,8c-3,2-12,6-22,11C1625,908.1,1613,913.1,1613,912.1z M1779,834.1c4-2,8-3,8-3c1,1-11,7-13,7
				C1773,838.1,1775,836.1,1779,834.1z M1797,826.1c4-2,7-3,7-3c1,1-12,7-13,7S1793,828.1,1797,826.1z M1810,820.1c0-1,1-1,2-1
				s1,0,1,1s-1,1-2,1S1810,821.1,1810,820.1z M1818,817.1c1-1,2-2,3-2S1822,815.1,1818,817.1C1816,818.1,1816,818.1,1818,817.1z
				 M2516,756.1c-18-1-19-1-22-7c-2-4-1-5,2-7l3-1v-20c-1-12-1-28-2-38v-18l4,1c2,0,8,1,14,1c11,1,31,4,36,5l2,1v38c-1,22-1,39,0,39
				c0,1,13,1,28,1l27,1v-37v-37h10c6,1,11,1,12,2c1,0,2,3,2,10c1,5,2,19,4,31c1,12,2,23,2,26c0,2,1,4,1,5c1,0,10,1,22,1h21l1-4
				c1-3,1-11,2-19c2-31,4-47,4-47c1-1,15,0,32,0c52,2,137,2,174,0c29-1,73-5,79-6c4-1,4,0,3,24c-1,12-1,28-1,34v12l31-1
				c36,0,62-1,63-2c0-1-1-21-4-59c-1-14-1-18,0-19s6-2,13-4c17-2.9,18-3,18-1.5c1,0.5,1,19.5,1,41.5c1,22,1,41,2,41c0,1,34,0,35-1
				c1,0,1-20,1-45l-1-44.8l3-1.4c1-0.8,5-2.3,10-3.3c8-1.9,19-4.8,43-11.6c7-2,15-4.4,19-5.4c9-2.6,40-13.2,49-17c6-2.3,9-2.9,9-2.1
				c1,0.7,2,20.1,3,58.6c1,34,2,59,2,60c1,0,4,2,8,3c18,4,32,11,23,11c-1,0-4,1-6,2c-10,6-26,7-223,7c-96,1-185,1-198,1
				c-13,1-95,1-181,2c-87,0-159,0-160,0S2526,756.1,2516,756.1z M2846,668.1c-26-1-52-4-59-7.3l-4-1.6v-8.1c0-4.4,0-13.4,0-19.9
				l-1-11.7h3c2,0,6,0.6,10,1.4c16,3.1,41,4.9,69,5c30,0,39-0.8,76-6.5c4-0.5,8-1.4,11-1.9c2-0.4,7-1.4,11-2c3-0.7,11-2.3,15-3.6
				c5-1.3,10-2,10-1.5c1,0.5,1,3.3,1,6.2c0,10-2,35.1-3,36.4c-2,3-24,9.1-43,12.1C2921,668.1,2879,669.1,2846,668.1z M2877,620
				c-19-3.5-29-10.8-29-19.8c0-2.5,2-5.2,3-4c1,0.3,1,1.6,1,2.8c0,3.2,3,5.2,10,7s27,4,28,3c1-0.9,1-4.9,0-38.5c-2-43.8-2-63.7-3-91
				c0-14,0-38.5-1-54.5c0-16,0-47.2-1-69.5c0-22.3,0-54.5-1-71.5c-1-73.9-1-94.9-1-223.9c-1-136-1-146-4-167c-4-31-12-58-24-74
				c-10-13-18-19-32-25c-11-4-19-5-35-5c-18,0-38,3-48,6c-3,2-7,2-8,2c-2,0-18,9-22,12c-17,13-32,32-40,51c-1,3-3,7-3,9
				c-7,16-12,39-16,73c-1,12-2,67-1,84c3,44,4,63,6,85c1,8,2,21,3,28c1,16,5,48,6,58c1,4,1,10,1,12s1,4,1,4c1,0,7-1,13-2l11-3v-3
				c0-2,1-4,2-4c2,0,9,4,10,7c2,4,0,10-4,13c-4,2.8-14,7.5-17,8.5c-2,0.4-6,1.6-8,2.6l-5,1.9v6c0,10.2,5,35.5,8,44.9
				c4,12.2,4,11.2-3,14.5c-11,4.8-41,12.3-43,10.5c0-0.3,0-16,0-34.9c0-19-1-34.7-1-35s-8-0.6-18-0.7c-29-0.2-60-3.8-76-8.9
				c-4-1.1-10-3.7-15-5.9c-8-3.5-9-4.5-12-8.5c-5-8-4-11,4-17c6-4,7-4,9,4c1,3,3,7,3,7c3,2,26,7,50,10c14,3,40,4.1,44,3c3-1,3-1,3-8
				c-2-30-3-43-5-86s-2-95-2-129c1-4,1-14,1-22c0-28,4-67,8-84c0-3,2-9,2-13c2-14,14-39,24-53c1-1,4-5,6-8c4-6,24-26,33-33
				c12-9,31-19,47-26c18-6,44-9,61-5c23,6,52,22,65,38c3,3,7,7,9,9c8,10,16,27,21,42c6,19,6,22,7,73c0,63,1,105,2,127
				c0,12,0,35,1,52c0,45,1,85,2,142.4c1,10.7,1,35.5,1,55c1,19.5,1,43.8,2,54c0,10.2,0,31.5,0,47.5c1,16,1,38.9,1,51
				c1,12.1,1,33.9,2,48.5c0,14.6,0,38.4,0,53c1,14.6,1,30.1,1,34.5c0,14.9,1,24.6,3,25.2c1,0.6,12-4.2,13-6c1-0.7,1-3.3,1-6
				c0-4,0-4.7,2-4.7c3,0,7,5.6,7,9.3c0,7.6-9,14.4-24,18.3C2905,621.2,2885,621.8,2877,620z"/>
			<path id="path3101" inkscape:connector-curvature="0" class="st10" d="M1400,1040c-9-1-21-3-28-6c-6-2-7-5-2-8c6-3,25-12,26-12
				s0,1-1,3c-5,6,1,9,20,12c13,2,22,2,1502,2h1488l10-2c15-3,19-6,18-11c-1-2-1-2,2-1c1,1,7,3,12,6c8,4,10,5,10,7s-2,3-5,4
				c-7,3-18,5-28,6C4413,1041,1411,1041,1400,1040z M1965,996.1c-1-1-2-6-4-12c-1-7-2-14-3-17c-4-15-8-50-8-74c0-14,2-39,3-40
				c0-1,1-3,1-5c1-6,3-16,8-32c4-12,5-15,10-24c7-12,8-14,10-15c1,0,9-2,17-2c13-2,106-2,908-2l893,1l12,2c7,1,16,2,20,3
				c15,3,24,5,25,7c4,6,10,28,12,44c2,13,2,49,0,63c-1,6-3,15-4,20c0,5-2,15-4,21s-4,13-4,15c-1,4-9,28-10,33c-1,1-2,4-3,7
				c-1,2-2,4-3,6c-1,1-2,2-938,2C2210,997.1,1966,996.1,1965,996.1z M2499,754.1c-6-4-7-10-2-11l3-1v-19c-1-11-1-28-2-38v-19l3,1
				c2,0,7,1,12,2c4,0,14,2,23,3l16,2l-1,17c0,10,0,28-1,39c0,16,0,20,1,21s11,1,30,2c24,0,28,0,28-1s0-17,0-37v-36l10,1
				c5,0,10,1,10,1s1,4,1,7c3,27,7,65,8,66s-2,1-16,1c-10,0-40,0-68,1C2504,756.1,2502,756.1,2499,754.1z M2683,754.1c0,0,0-1,1-1
				c0-1,1-5,1-9c1-5,2-18,3-30c1-13,2-25,2-27s1-3,2-3c13,1,65,2,121,2c77,0,92-1,148-6c8-1,15-1,15-1s-1,15-1,34c-2,30-2,34,0,35
				c1,1,4,1,11,0c6,0,27,0,48-1c20-1,37-1,37-2c1-1,1-12-3-56c0-12-1-22-1-22c1-1,26-6,28-6c0,0,1,12,2,42l1,42h12c7,0,16,0,20-1h8
				v-46v-46l7-1.8c10-2.3,21-5.4,33-8.8c5-1.5,12-3.3,15-4c12-3,48-14.9,63-20.7c6-2.4,12-4,12-3.6s1,26,2,56.9c1,31,1,58,2,59
				c0,1,1,2,3,3c21,4,38,12,28,12c-2,0-4,1-6,2s-6,2-9,3c-16,3-37,3-348,4c-72,1-159,1-194,2C2703,755.1,2683,755.1,2683,754.1z
				 M2839,666.1c-4,0-15-1-23-2c-23-2-31-4.3-31-8c-1-3.7-2-35.6-1-35.6c0,0,4,0.9,10,1.9c9,1.8,26,3.9,39,4.7s61,0.5,69-0.5
				c13-1.8,36-5,42-6.1c3-0.6,9-1.5,12-2c4-0.6,12-2.4,18-4s12-2.5,12-2.1c1,0.8,0,23.6-2,35.3c0,4.6,0,4.8-5,6.6
				c-8,3-26,6.8-36,7.8c-5,1-13,2-17,3C2918,666.1,2852,666.1,2839,666.1z M2873,617.5c-12-3.2-22-9-22-12.6c0-1.8,0-1.8,4,0.6
				c5,2.5,18,5,28,5.3c34,0.9,47-2.9,47-13.3c0-4.5,1-5.1,3-1.8c5,5.9,1,12.8-9,17.4c-9,4.4-15,5.5-29,5.9
				C2883,619.4,2879,619.1,2873,617.5z M2581,236.4c-9-0.8-13-1.3-31-4.4c-19-3.3-36-10.9-40-16.9s-4-9,0-13c2-1,5-3,6-4
				c3-1,3,0,5,6c3,8,4,9,10,10c3,1,10,2,17,4c29,5.8,66,8.7,77,5.8c3-0.8,7-1.8,9-1.8c5-1,20-4,24-5c2-1,5-2,7-2c4,0,25-5,27-6
				c1,0,1-2,1-4c0-3,0-3,5,0c4,2,5,4,4,8c-1,6-10,11-29,17.3c-17,5.7-29,7.1-58,7C2602,237.3,2586,236.9,2581,236.4z"/>
		</g>
		<g id="g3067_1_" transform="matrix(1.319,0,0,1.276,2154,0.0982)">
			<path class="st5" d="M536,621.9V328.3l-25,15l-4.1,278.6C516.6,621.8,526.3,621.7,536,621.9z"/>
			<path class="st6" d="M208.7,332.9l-2.9,290.3c1.4-0.2,2.8-0.3,4.2-0.3h9.8L219.3,346l292.7-1.4l24-15L208.7,332.9z"/>
		</g>
		<g id="g3061" transform="matrix(1.319,0,0,1.276,1659,3.433)">
			<polygon class="st5" points="1250.5,621.8 1250.5,323.3 1225.5,338.3 1221.3,621.8 			"/>
			<path class="st6" d="M923.2,327.9l-2.9,291.6c4.7,0.2,9.4,0.4,14,0.7L933.8,341l292.7-1.4l24-15L923.2,327.9z"/>
		</g>
		<g id="g3067_2_" transform="matrix(1.319,0,0,1.276,2154,0.0982)">
			<path class="st6" d="M1292.1,167.6c0-5.1,0.1-10.2,0.1-15.3l-49.3,0.6l-4.1,469.7h3.6c4,0,7.9,0.1,11.9,0.3l-0.7-455
				L1292.1,167.6z"/>
		</g>
	</g>
	
		<image style="overflow:visible;enable-background:new    ;" width="3493" height="4251" xlink:href="milkpic.png"  transform="matrix(6.600000e-02 0 0 6.600000e-02 929.0795 318.5415)">
	</image>
</g>
<g id="Layer_2">
</g>
</svg>
